<?xml version="1.0" encoding="utf-8"?>
<!-- Generator: Adobe Illustrator 28.1.0, SVG Export Plug-In . SVG Version: 6.00 Build 0)  -->
<svg version="1.1" id="Capa_1" xmlns="http://www.w3.org/2000/svg" xmlns:xlink="http://www.w3.org/1999/xlink" x="0px" y="0px"
	 viewBox="0 0 372 150" style="enable-background:new 0 0 372 150;" xml:space="preserve">
<style type="text/css">
	.st0{fill:#FFFFFF;}
	.st1{fill:#C41230;}
</style>
<g>
	<g>
		<path class="st0" d="M4.24,0.5l34.95,149c73.39-47.2,143.92-1.84,146.76-0.11h0.01c0.01,0,0.01-0.01,0.02-0.01h0.04
			c0.01,0,0.02,0.01,0.02,0.01h0.01c2.83-1.73,73.37-47.09,146.75,0.11l34.95-149H4.24z"/>
	</g>
	<g>
		<path class="st1" d="M324.96,9.6c0.91-0.06,1.72-0.25,2.43-0.56c0.71-0.31,1.28-0.78,1.7-1.43c0.42-0.64,0.64-1.55,0.64-2.7
			c0-0.97-0.19-1.75-0.57-2.33c-0.38-0.58-0.87-1.02-1.47-1.33c-0.6-0.31-1.29-0.52-2.07-0.63c-0.33-0.05-0.67-0.08-1-0.11h-7.29
			v9.2h4.73C323.09,9.7,324.05,9.66,324.96,9.6z M307.85,26.48c1.84,1.91,4.02,3.41,6.53,4.5c2.51,1.09,5.23,1.63,8.15,1.63
			c2.89,0,5.57-0.54,8.06-1.63c2.49-1.09,4.65-2.59,6.5-4.5c1.84-1.91,3.28-4.16,4.33-6.76c1.04-2.6,1.57-5.43,1.57-8.5
			c0-2.97-0.53-5.75-1.57-8.32c-0.34-0.84-0.74-1.63-1.17-2.4h-7.09c0.72,1.23,1.09,2.76,1.09,4.6c0,2.62-0.73,4.54-2.2,5.76
			c-1.46,1.22-3.28,1.94-5.46,2.17l8.33,12.86h-4.87l-7.92-12.52h-4.8v12.52h-4.53V0.5h-8.13c-0.43,0.77-0.83,1.56-1.17,2.4
			c-1.04,2.58-1.57,5.35-1.57,8.32c0,3.07,0.52,5.9,1.57,8.5C304.56,22.32,306.01,24.58,307.85,26.48z M132.33,50.32
			c-6.31,0-9.66,4.93-9.73,9.98h20.29C142.89,54.35,139.12,50.32,132.33,50.32z M345.05,0.5c0.15,0.31,0.32,0.61,0.46,0.94
			c1.33,3.02,2,6.28,2,9.79c0,3.6-0.67,6.92-2,9.97c-1.33,3.03-3.13,5.68-5.4,7.92c-2.27,2.24-4.91,3.99-7.92,5.23
			c-3.02,1.24-6.24,1.87-9.66,1.87c-3.42,0-6.65-0.62-9.69-1.87c-3.04-1.24-5.71-2.99-8-5.23c-2.29-2.24-4.1-4.89-5.43-7.92
			c-1.33-3.05-2-6.36-2-9.97c0-3.51,0.67-6.77,2-9.79c0.14-0.32,0.31-0.62,0.47-0.94H4.24l34.95,149
			c73.39-47.2,143.92-1.84,146.76-0.11h0.01c0.01-0.01,0.01-0.01,0.02-0.01h0.04c0.01,0,0.02,0.01,0.02,0.01h0.01
			c2.83-1.73,73.37-47.09,146.75,0.11l34.95-149H345.05z M100.3,90.96H52.52V41.19H74v36.22h26.3V90.96z M164.56,70.31h-41.92
			c0,6.48,5.48,11.36,12.79,11.36c4.35,0,8.3-1.44,11.1-5.33h16.72c-5.46,12.56-16.06,16.13-30.51,16.13
			c-18.79,0-32.08-10.18-32.08-26.29c0-17.22,13.09-26.3,32.08-26.3c21.25,0,31.9,13.77,31.9,27.02
			C164.63,68.01,164.72,69.11,164.56,70.31z M203.45,91.04h-18.1l-27.03-49.89h24.39l15.51,30.32l0.43,0.91l0.39-0.91l14.5-30.32
			h14.65L203.45,91.04z M251.18,90.94h-20.72V41.06h20.72V90.94z M266.75,47.31l-6.24,6.79h-2.6l2.86-7.4h-5.72v-9.87h11.69V47.31z
			 M293.94,92.36c-22.14,0-26.17-12.79-26.17-15.96h16.03c0,1.86,2.52,4.1,4.65,5c1.75,0.75,3.7,0.9,5.53,0.9
			c4.51,0,8.22-1.1,8.22-3.72c0-3.19-3.79-3.9-7.97-4.5c-11.38-1.64-27.34-3.55-27.34-16.29c0-11.88,12.97-17.92,26.74-17.92
			c22.04,0,27.88,12.21,27.88,15.75h-16.29c0-1.06-0.8-3.08-3.03-4.24c-1.65-0.86-4.07-1.56-6.41-1.56c-6.09,0-9.51,1.27-9.51,4.06
			c0,2.28,3.09,3.41,7.52,4.17c11.57,1.99,29.34,2.67,29.34,16.76C323.12,81.96,316.93,92.36,293.94,92.36z"/>
	</g>
</g>
</svg>
